<svg width="413" height="338" viewBox="0 0 413 338" fill="none" xmlns="http://www.w3.org/2000/svg">
<g filter="url(#filter0_f)">
<ellipse cx="206.89" cy="278.421" rx="85" ry="5" fill="black"/>
</g>
<g filter="url(#filter1_f)">
<ellipse cx="206.838" cy="277.421" rx="150" ry="4" fill="black"/>
</g>
<g filter="url(#filter2_d)">
<path fill-rule="evenodd" clip-rule="evenodd" d="M206.838 277.861C203.037 277.861 199.289 277.58 195.604 277.034C190.552 276.285 185.62 275.037 180.843 273.331C178.204 272.388 175.612 271.306 173.072 270.089C162.449 265.005 152.741 257.591 144.343 248.345C136.08 239.247 129.085 228.374 123.734 216.201C121.357 210.792 119.305 205.126 117.61 199.245C113.961 186.579 111.97 172.915 111.97 158.667C111.97 144.974 113.808 131.063 117.191 117.621C118.898 110.835 121 104.168 123.457 97.7074C124.381 95.2791 125.355 92.8803 126.376 90.5148C132.38 76.6221 140.05 63.8974 148.98 53.2863C157.038 43.7123 166.12 35.8578 175.93 30.4164C178.055 29.2379 180.214 28.172 182.406 27.2264C187.05 25.2225 191.834 23.7587 196.728 22.9031C200.051 22.3221 203.423 22.0211 206.838 22.0211C216.498 22.0211 225.822 24.4289 234.603 28.7688C236.629 29.7697 238.627 30.8734 240.592 32.0746C249.315 37.404 257.423 44.645 264.695 53.2863C273.625 63.8974 281.295 76.6221 287.299 90.5148C288.321 92.8803 289.295 95.2791 290.219 97.7074C292.675 104.168 294.777 110.835 296.484 117.621C299.868 131.063 301.705 144.974 301.705 158.667C301.705 172.914 299.716 186.579 296.066 199.244C294.372 205.126 292.319 210.792 289.941 216.201C284.591 228.374 277.596 239.247 269.333 248.345C261.68 256.77 252.94 263.674 243.41 268.681C241.132 269.879 238.809 270.966 236.445 271.941C227.129 275.783 217.176 277.861 206.838 277.861Z" fill="url(#paint0_linear)"/>
</g>
<path d="M153.987 47.8635C156.936 44.7612 160.005 41.8851 163.181 39.2654C163.498 39.0052 163.814 38.7472 164.132 38.4915C182.197 25.0656 197.402 22.1425 206.976 22.0533C188.737 23.0375 169.423 32.4443 153.987 47.8635Z" fill="black"/>
<path d="M122.778 100.066C124.597 95.0738 126.627 90.193 128.855 85.4642C151.143 42.6174 197.583 22.3218 206.98 22.0533C197.535 23.3257 141.556 53.2459 122.778 100.066Z" fill="black"/>
<path d="M112.207 163.479C112.157 161.88 112.131 160.273 112.131 158.659C112.131 154.985 112.265 151.289 112.527 147.587C117.005 110.022 143.52 80.5532 190.882 39.3138C204.549 27.4137 207.391 24.5761 207.774 22.4482C207.535 22.3302 207.215 22.1721 206.975 22.0533C214.067 23.1313 204.288 32.7219 186.397 49.5807C144.612 88.9501 112.618 122.335 112.207 163.479Z" fill="black"/>
<path d="M126.543 221.77C125.162 218.998 123.869 216.15 122.67 213.234C122.035 211.69 121.426 210.126 120.844 208.544C107.563 166.102 136.858 130.637 183.068 81.3778C206.256 56.6599 238.012 22.8075 206.976 22.0533C246.782 24.3106 208.533 65.8511 185.68 90.6711C137.799 142.674 107.815 179.893 126.543 221.77Z" fill="black"/>
<path d="M161.212 263.05C157.691 260.604 154.308 257.886 151.08 254.918C114.256 218.135 147.223 175.717 194.148 124.085C276.668 33.2877 230.611 22.4837 206.979 22.0533C228.341 22.9928 290.886 33.8672 198.838 134.373C150.527 187.123 117.079 230.093 161.212 263.05Z" fill="black"/>
<path d="M251.686 40.0346C303.68 88.2797 243.481 150.675 207.513 187.955C137.957 260.048 168.832 276.621 206.98 277.829C203.894 277.672 199.77 277.503 196.7 277.138C120.721 264.23 181.909 199.793 204.943 175.535C234.294 144.625 303.028 72.2401 240.984 32.2413C244.67 34.5108 248.242 37.1214 251.686 40.0346Z" fill="black"/>
<path d="M286.097 87.6324C306.288 139.391 270.69 179.328 222.056 226.16C200.037 247.363 169.881 276.401 206.979 277.825C159.773 275.979 196.683 239.547 221.107 215.44C255.993 181.005 308.713 128.967 279.077 73.8918C281.602 78.3013 283.947 82.8954 286.097 87.6324Z" fill="black"/>
<path d="M301.541 149.603C301.304 189.658 274.079 218.899 227.134 255.872C209.149 270.035 200.122 277.145 206.976 277.827C195.756 276.924 205.292 267.954 219.99 255.379C266.037 215.985 305.804 181.964 299.845 133.759C300.662 139.032 301.232 144.327 301.541 149.603Z" fill="black"/>
<path d="M292.586 209.924C271.433 256.814 211.621 277.417 206.981 277.828C211.543 276.985 282.62 244.762 297.051 195.975C295.792 200.763 294.298 205.421 292.586 209.924Z" fill="black"/>
<path d="M262.137 255.589C239.739 274.018 217.967 277.432 206.981 277.827C228.72 276.773 255.788 263.449 271.341 246.146C268.438 249.526 265.363 252.682 262.137 255.589Z" fill="black"/>
<g opacity="0.35" filter="url(#filter3_f)">
<ellipse cx="206.5" cy="278" rx="62" ry="4" fill="black"/>
</g>
<defs>
<filter id="filter0_f" x="79.8901" y="231.421" width="254" height="94" filterUnits="userSpaceOnUse" color-interpolation-filters="sRGB">
<feFlood flood-opacity="0" result="BackgroundImageFix"/>
<feBlend mode="normal" in="SourceGraphic" in2="BackgroundImageFix" result="shape"/>
<feGaussianBlur stdDeviation="21" result="effect1_foregroundBlur"/>
</filter>
<filter id="filter1_f" x="0.837891" y="217.421" width="412" height="120" filterUnits="userSpaceOnUse" color-interpolation-filters="sRGB">
<feFlood flood-opacity="0" result="BackgroundImageFix"/>
<feBlend mode="normal" in="SourceGraphic" in2="BackgroundImageFix" result="shape"/>
<feGaussianBlur stdDeviation="28" result="effect1_foregroundBlur"/>
</filter>
<filter id="filter2_d" x="87.9703" y="0.0210571" width="237.735" height="303.84" filterUnits="userSpaceOnUse" color-interpolation-filters="sRGB">
<feFlood flood-opacity="0" result="BackgroundImageFix"/>
<feColorMatrix in="SourceAlpha" type="matrix" values="0 0 0 0 0 0 0 0 0 0 0 0 0 0 0 0 0 0 127 0"/>
<feOffset dy="2"/>
<feGaussianBlur stdDeviation="12"/>
<feColorMatrix type="matrix" values="0 0 0 0 0 0 0 0 0 0 0 0 0 0 0 0 0 0 0.1 0"/>
<feBlend mode="normal" in2="BackgroundImageFix" result="effect1_dropShadow"/>
<feBlend mode="normal" in="SourceGraphic" in2="effect1_dropShadow" result="shape"/>
</filter>
<filter id="filter3_f" x="128.5" y="258" width="156" height="40" filterUnits="userSpaceOnUse" color-interpolation-filters="sRGB">
<feFlood flood-opacity="0" result="BackgroundImageFix"/>
<feBlend mode="normal" in="SourceGraphic" in2="BackgroundImageFix" result="shape"/>
<feGaussianBlur stdDeviation="8" result="effect1_foregroundBlur"/>
</filter>
<linearGradient id="paint0_linear" x1="206.838" y1="22.0211" x2="206.838" y2="277.861" gradientUnits="userSpaceOnUse">
<stop stop-color="#FFE401"/>
<stop offset="0.494792" stop-color="#FEDD01"/>
<stop offset="1" stop-color="#F9AB01"/>
</linearGradient>
</defs>
</svg>
