<svg width="413" height="338" viewBox="0 0 413 338" fill="none" xmlns="http://www.w3.org/2000/svg">
<g filter="url(#filter0_f)">
<ellipse cx="206.89" cy="278.421" rx="85" ry="5" fill="black"/>
</g>
<g filter="url(#filter1_f)">
<ellipse cx="206.838" cy="277.421" rx="150" ry="4" fill="black"/>
</g>
<g filter="url(#filter2_d)">
<path d="M144.297 248.857C152.387 257.914 162.159 265.315 173.069 270.649C175.605 271.875 178.203 272.969 180.852 273.926C185.647 275.648 190.6 276.891 195.64 277.638C199.364 278.188 203.124 278.462 206.888 278.457C217.065 278.449 227.14 276.433 236.537 272.525C238.908 271.548 241.234 270.455 243.517 269.248C253.296 264.027 262.083 257.131 269.48 248.873C278.048 239.317 285.017 228.439 290.117 216.66C292.55 211.135 294.611 205.453 296.286 199.652C300.059 186.43 301.959 172.743 301.93 158.992C301.875 145.119 300.12 131.304 296.703 117.857C295 111.089 292.904 104.426 290.428 97.9003C289.505 95.4698 288.53 93.0667 287.503 90.6908C281.786 77.2236 274.151 64.6543 264.834 53.3736C257.981 45.0384 249.828 37.8625 240.691 32.122C238.725 30.9149 236.726 29.8226 234.694 28.8449C226.077 24.4561 216.558 22.131 206.888 22.0533C203.494 22.0547 200.105 22.3508 196.762 22.9381C191.825 23.8176 187.008 25.2721 182.409 27.272C180.224 28.2223 178.064 29.2764 175.928 30.4343C166.105 35.9233 157.012 43.7882 148.942 53.3736C139.634 64.6544 132.01 77.224 126.306 90.6908C125.284 93.0667 124.323 95.4698 123.422 97.9003C120.942 104.424 118.847 111.088 117.146 117.857C113.726 131.303 111.97 145.118 111.92 158.992C111.878 172.741 113.764 186.428 117.523 199.652C119.188 205.447 121.238 211.123 123.66 216.644C128.76 228.422 135.728 239.3 144.297 248.857Z" fill="url(#paint0_linear)"/>
</g>
<path d="M183.015 27.2966C185.391 26.2069 188.635 24.9207 191.101 24.0769C193.927 23.4542 197.729 22.7579 200.596 22.3482C198.138 22.7415 194.861 23.4215 192.404 24.0769C189.561 24.9535 185.8 26.2479 183.015 27.2966ZM187.111 29.0907C190.564 27.2194 194.119 25.5454 197.762 24.0769C200.408 22.594 200.572 22.5776 204.815 22.0943C200.146 22.4875 199.9 22.5531 193.985 24.0769C190.044 25.9612 189.938 26.0841 187.078 29.0907H187.111ZM185.44 30.4179C187.898 26.8378 189.856 25.9202 193.69 24.0769C197.642 22.8521 201.744 22.1794 205.88 22.0779C201.743 22.0779 200.498 22.807 198.253 24.0769C193.865 25.9232 189.599 28.0466 185.481 30.4343L185.44 30.4179ZM189.659 27.3129C191.896 26.2971 194.911 25.0026 197.188 24.0933C198.77 23.368 200.416 22.7894 202.104 22.3646C199.81 22.7906 196.762 23.4952 194.501 24.0933C192.79 25.0262 191.162 26.1033 189.635 27.3129H189.659ZM200.678 27.3129C201.858 26.338 203.373 25.06 204.529 24.0769C204.402 23.4962 204.465 22.8902 204.709 22.3482C203.554 22.8234 202.038 23.528 200.924 24.0769C200.674 25.1309 200.608 26.22 200.727 27.2966L200.678 27.3129ZM213.966 29.0907C214.122 26.2315 214.098 26.1988 212.639 24.0769C208.977 22.6022 208.879 22.5776 206.331 22.0943C207.789 22.4875 207.789 22.5203 207.683 24.0769C209.526 25.6007 210.354 26.2561 213.966 29.0907ZM214.687 30.4179C209.936 26.5756 208.953 25.6908 207.15 24.0769C207.83 22.4384 207.15 22.3319 205.905 22.0779C207.863 22.0779 209.715 22.807 213.09 24.0769C215.097 26.0595 214.966 27.4276 214.728 30.4179H214.687ZM212.926 27.2966C212.773 26.1723 212.427 25.083 211.902 24.0769C210.591 23.5116 208.822 22.807 207.478 22.3482C207.959 22.8165 208.287 23.419 208.42 24.0769L212.844 27.2966H212.926ZM223.372 27.2966C221.64 26.0858 219.819 25.0094 217.924 24.0769C215.539 23.4706 212.328 22.7743 209.903 22.3482C211.792 22.7752 213.644 23.3532 215.441 24.0769C217.842 24.9781 221.012 26.2725 223.372 27.2966ZM232.973 29.0907C227.714 26.2397 227.468 26.1578 221.012 24.0769C214.458 22.594 214.229 22.5776 207.33 22.0943C213.5 22.4875 213.729 22.5531 219.521 24.0769C225.846 25.9694 226.075 26.0922 232.99 29.0907H232.973ZM235.39 30.4343C230.241 27.7901 224.843 25.6606 219.275 24.0769C214.36 22.4384 211.353 22.3237 205.872 22.0779C210.995 22.1637 216.091 22.8344 221.061 24.0769C228 26.0677 230.466 27.526 235.382 30.4179L235.39 30.4343ZM229.328 27.2966C226.87 26.2069 223.462 24.9289 220.889 24.0769C218.03 23.446 214.188 22.7579 211.288 22.3482C213.876 22.7415 217.301 23.4297 219.841 24.0769C222.716 24.9453 226.509 26.2479 229.328 27.2966ZM149.417 56.2738C153.67 52.1258 158.153 48.22 162.845 44.5747C165.671 39.6592 165.843 39.4871 170.153 34.973C165.543 37.8328 161.161 41.0428 157.044 44.5747C152.817 49.818 152.751 49.9409 149.409 56.2738H149.417ZM147.566 58.8298C150.556 52.1119 152.629 49.5968 156.758 44.5747C161.629 40.3685 166.868 36.6093 172.414 33.3427C167.498 37.6684 166.318 39.8312 163.689 44.5747C158.024 48.9849 152.642 53.7459 147.574 58.8298H147.566ZM152.244 52.5953C155.021 50.1375 158.798 46.926 161.657 44.5747C163.26 42.1545 164.991 39.8217 166.843 37.5865C164.016 39.61 160.289 42.4119 157.593 44.5747C155.856 46.8932 153.735 50.0965 152.244 52.5953ZM168.629 52.5953C171.463 50.1375 175.265 46.9588 178.132 44.5747C178.174 42.2332 178.385 39.8977 178.763 37.5865C175.92 39.651 172.209 42.4447 169.374 44.5747C168.962 47.2305 168.713 49.909 168.629 52.5953ZM192.387 56.2738C198.278 50.1949 198.851 49.5476 203.341 44.5747C199.736 39.6592 199.646 39.4626 197.36 34.973C194.083 37.9551 193.329 38.6679 186.71 44.5747C188.643 49.7688 188.782 50.0146 192.379 56.2738H192.387ZM191.937 58.8298C187.717 52.0054 186.923 49.6787 185.186 44.5747C193.444 37.3325 193.444 37.3325 197.893 33.3427C199.752 37.611 201.432 39.7903 205.094 44.5747C200.588 49.818 197.516 53.0213 191.937 58.8298ZM193.059 52.5953C195.378 50.2112 198.45 46.9997 200.727 44.5747C199.392 42.5266 197.712 39.7329 196.557 37.5865C194.312 39.6919 191.298 42.502 189.036 44.5747C190.134 47.0325 191.756 50.244 193.059 52.5953ZM222.954 52.5953C224.035 50.2358 225.346 47.0243 226.231 44.5747L218.341 37.5865C217.432 39.7329 216.056 42.502 214.941 44.5747C217.342 46.9915 220.553 50.203 222.978 52.5953H222.954ZM248.375 56.2738C248.105 50.4242 248.039 50.2112 246.286 44.5747C239.888 39.7411 238.241 38.6351 232.785 34.973C234.423 39.1349 234.423 39.3397 234.645 44.5747C241.199 49.9982 242.182 50.8339 248.375 56.2738ZM249.76 58.8298C242.911 52.5953 239.29 49.5722 233.293 44.5747C233.563 39.012 232.736 37.1113 231.089 33.3427C238.217 37.8158 241.993 40.6505 247.228 44.5747C249.539 50.3095 249.604 52.9885 249.76 58.8298ZM246.253 52.5953C245.934 49.8947 245.45 47.2161 244.803 44.5747C241.977 42.4365 238.167 39.6592 235.284 37.5865C235.897 39.88 236.341 42.2158 236.611 44.5747C239.527 46.9506 243.378 50.1703 246.253 52.5953ZM260.902 52.5953C259.263 50.1375 256.863 46.8605 254.97 44.5747C252.324 42.4037 248.711 39.61 245.959 37.5865C247.986 39.8185 249.9 42.1508 251.693 44.5747C254.503 46.9178 258.19 50.1293 260.894 52.5953H260.902ZM130.115 92.5178C132.573 89.1506 135.965 84.7348 138.57 81.4823C138.906 78.32 139.57 74.109 140.209 71.0286C137.693 74.1008 134.474 78.2872 132.082 81.4823C131.328 84.7594 130.541 89.1834 130.099 92.5178H130.115ZM150.843 97.3432C157.184 90.2976 159.289 88.0856 165.589 81.4823C162.689 74.3056 162.632 74.0271 160.993 66.8176C153.948 73.7485 152.981 74.7808 146.714 81.4823C147.934 88.7983 148.041 89.1178 150.81 97.3432H150.843ZM149.991 100.62C146.722 91.8787 146.247 88.6017 145.206 81.4823C152.063 73.9452 155.856 70.2339 162.255 64.0731C163.476 71.299 165.196 75.3543 167.801 81.4823C159.142 90.4287 155.512 94.4758 150.056 100.612L149.991 100.62ZM152.137 92.5178C155.209 89.1834 159.355 84.7676 162.484 81.4823C161.403 78.3855 160.125 74.2073 159.306 71.0286C156.242 74.1336 152.203 78.3118 149.204 81.4823C149.941 84.8249 151.129 89.2407 152.137 92.5178ZM188.733 92.5178C191.822 89.2407 195.926 84.8003 198.999 81.4823C196.541 78.3937 193.346 74.2155 191.019 71.0286C188.012 74.1746 184.047 78.3528 181 81.4823C183.236 84.8413 186.341 89.2571 188.733 92.5178ZM229.557 97.3432C233.21 92.2756 236.532 86.9776 239.503 81.4823C235.947 77.8284 235.947 77.8285 225.174 66.8176C221.989 71.905 218.51 76.8016 214.753 81.4823C219.898 87.0369 220.316 87.4957 229.557 97.3432ZM229.909 100.62C218.538 88.4624 218.538 88.4624 212.123 81.4823C216.722 75.9941 220.912 70.1753 224.658 64.0731C230.354 69.8735 236.054 75.6765 241.756 81.4823C237.659 89.4701 234.595 93.9023 229.909 100.612V100.62ZM229.008 92.5178C231.204 89.2407 234.022 84.8413 236.054 81.4823L225.919 71.0286C223.814 74.2155 220.897 78.4019 218.644 81.4823L229.008 92.5178ZM263.892 92.5178C264.711 89.2407 265.58 84.8167 266.096 81.4823C263.155 78.3118 259.173 74.109 256.158 71.0286C255.568 74.1991 254.577 78.4019 253.701 81.4823C256.789 84.7594 260.861 89.1752 263.884 92.5178H263.892ZM285.463 97.3432C284.275 89.6913 284.169 89.3882 281.441 81.4823C276.918 74.4285 276.681 74.109 270.725 66.8176C272.978 73.5519 272.994 73.6994 274.002 81.4823C278.154 86.5238 281.984 91.8212 285.471 97.3432H285.463ZM286.635 100.62C281.539 92.2392 278.262 88.1921 272.838 81.4823C272.33 73.5028 271.282 70.5452 268.988 64.0731C273.784 69.4514 278.048 75.2817 281.719 81.4823C285.078 89.6749 285.562 93.0994 286.635 100.612V100.62ZM283.62 92.5178C282.956 89.167 281.85 84.7512 280.875 81.4823C278.68 78.279 275.624 74.109 273.248 71.0286C274.116 74.1254 275.067 78.3118 275.632 81.4823C278.09 84.7594 281.301 89.1506 283.62 92.5178ZM117.482 145.131C120.997 136.938 121.202 136.61 126.322 127.664C124.356 119.471 124.331 119.111 123.717 110.46C119.219 118.652 119.145 118.791 115.623 127.664C115.737 135.898 115.803 136.242 117.482 145.131ZM117.228 148.604C115.008 139.347 115.041 135.685 115.098 127.664C118.146 118.742 120.612 114.367 124.684 107.125C124.864 115.99 125.814 119.643 127.887 127.664C123.686 134.294 120.121 141.305 117.237 148.604H117.228ZM117.99 139.92C119.727 136.192 122.201 131.285 124.151 127.631C123.463 124.026 122.767 119.168 122.39 115.514C120.538 119.095 118.22 123.945 116.606 127.631C116.852 131.326 117.425 136.233 117.99 139.92ZM144.805 139.92C147.68 136.209 151.588 131.301 154.562 127.631C152.457 124.051 149.769 119.201 147.86 115.514C144.96 119.111 141.159 123.953 138.357 127.631C140.184 131.367 142.773 136.266 144.805 139.92ZM184.694 145.131C190.306 139.101 191.314 138.011 201.08 127.664C193.452 119.299 192.338 117.948 186.161 110.46C177.968 119.258 177.673 119.578 170.349 127.664C176.567 135.75 178.443 137.929 184.662 145.131H184.694ZM184.604 148.604C176.1 139.003 172.692 134.488 167.531 127.664C173.307 121.192 176.125 118.12 186.374 107.125C193.206 115.645 197.385 120.168 204.316 127.664C192.273 140.346 192.273 140.346 184.588 148.604H184.604ZM184.768 139.92C188.201 136.242 192.797 131.334 196.238 127.631C193.059 124.035 188.864 119.193 185.809 115.514C182.433 119.135 177.968 123.986 174.626 127.631C177.608 131.351 181.663 136.258 184.752 139.92H184.768ZM233.735 139.92C236.668 136.291 240.51 131.392 243.329 127.631C240.052 123.977 235.652 119.135 232.342 115.514C229.434 119.193 225.477 124.043 222.47 127.631C225.862 131.301 230.368 136.201 233.735 139.92ZM272.24 145.131C276.771 136.791 276.836 136.618 280.392 127.664C274.829 119.635 273.142 117.513 267.546 110.46C265.086 116.402 262.186 122.153 258.87 127.664C265.727 136.119 266.719 137.495 272.24 145.131ZM272.429 148.604C266.366 139.863 262.598 135.267 256.363 127.664C260.481 121.158 263.984 114.282 266.825 107.125C272.298 113.685 277.404 120.541 282.121 127.664C279.016 136.676 276.386 141.444 272.429 148.604ZM271.864 139.92C273.707 136.299 276.025 131.392 277.647 127.631C274.985 123.953 271.339 119.103 268.554 115.514C266.85 119.201 264.416 124.051 262.499 127.631C265.367 131.269 269.111 136.176 271.864 139.92ZM295.868 139.92C296.212 136.258 296.433 131.351 296.433 127.631C295.049 123.945 293.009 119.095 291.362 115.514C291.239 119.16 290.838 124.01 290.387 127.631C292.157 131.252 294.344 136.16 295.868 139.92ZM120.35 189.838C120.858 185.741 120.899 185.553 122.988 177.385C120.743 172.985 120.743 172.985 117.45 164.506C116.229 168.963 116.229 168.963 114.992 177.385C116.434 181.629 116.507 181.784 120.333 189.838H120.35ZM145.976 194.966C149.071 188.909 152.517 183.038 156.299 177.385C151.575 171.475 147.164 165.322 143.084 158.951C139.36 164.878 136.016 171.035 133.073 177.385C137.064 183.471 141.377 189.339 145.993 194.966H145.976ZM146.582 198.341C140.954 191.729 135.802 184.726 131.164 177.385C135.375 167.939 138.12 163.523 143.117 155.494C149.065 164.858 152.129 168.742 158.986 177.385C154.318 184.055 150.171 191.075 146.582 198.382V198.341ZM145.206 189.878C147.312 185.782 147.41 185.643 152.432 177.426C148.983 172.985 148.983 172.985 143.15 164.506C140.405 169.02 140.405 169.02 136.08 177.385C138.881 181.579 139.119 181.891 145.206 189.838V189.878ZM186.521 189.838C189.798 185.905 190.265 185.43 197.409 177.385C193.166 172.781 193.166 172.781 185.866 164.506C181.876 169.184 181.876 169.184 175.216 177.385C178.763 181.44 179.312 182.071 186.505 189.838H186.521ZM231.638 194.966C239.683 186.249 240.699 185.069 247.269 177.385C241.756 170.011 239.896 167.554 232.891 158.951C226.788 166.202 224.887 168.406 216.793 177.385C224.666 186.397 225.731 187.699 231.638 194.966ZM231.4 198.382C225.166 190.567 221.938 186.855 213.573 177.426C223.2 167.013 226.681 162.941 232.891 155.535C241.51 165.858 244.91 170.462 250.096 177.426C243.23 185.618 239.912 189.289 231.433 198.382H231.4ZM232.023 189.878C236.054 185.495 236.054 185.495 243.067 177.426C239.962 173.329 239.568 172.813 232.908 164.547C229.377 168.75 228.943 169.241 221.635 177.426C225.534 181.94 225.534 181.94 232.023 189.878ZM271.413 189.878C274.69 185.635 274.69 185.635 280.072 177.426C278.237 173.182 278.155 173.026 273.625 164.547C270.954 168.881 270.725 169.2 264.818 177.426C267.399 181.792 267.399 181.792 271.372 189.878H271.413ZM292.501 195.007C296.392 186.552 296.441 186.38 298.94 177.426C298.686 168.627 298.653 168.414 296.703 158.992C294.115 167.963 294.033 168.144 289.781 177.426C291.894 186.143 291.903 186.315 292.501 195.007ZM291.681 198.382C291.518 189.272 290.534 185.561 288.404 177.426C293.418 167.595 294.59 163.31 296.728 155.535C299.284 165.555 299.3 169.274 299.341 177.426C297.22 186.937 295.491 190.534 291.706 198.382H291.681ZM293.697 189.878C295.638 185.676 295.638 185.676 298.301 177.426C298.154 173.133 298.129 172.977 296.662 164.547C295.409 168.922 295.343 169.086 291.829 177.426C292.853 181.743 292.853 181.743 293.689 189.878H293.697ZM138.914 237.625C137.095 231.071 137.087 230.932 136.743 223.607C130.378 216.234 130.378 216.234 124.766 208.115C125.29 215.841 125.331 215.988 127.436 223.607C132.442 230.571 132.68 230.833 138.906 237.625H138.914ZM140.626 240.214C135.504 235.171 130.924 229.605 126.961 223.607C124.192 215.497 124.036 212.138 123.684 204.879C129.165 213.383 132.327 217.012 138.07 223.607C137.939 231.497 138.783 234.258 140.618 240.214H140.626ZM136.415 233.611C135.506 230.334 135.506 230.334 134.842 223.599C131.721 219.994 131.721 219.994 126.461 212.859C126.699 216.603 126.732 216.734 128.28 223.599C130.738 227.056 130.959 227.302 136.415 233.611ZM157.61 233.611C158.47 230.334 158.527 230.235 161.272 223.599C157.479 219.913 157.479 219.913 150.687 212.859C149.13 216.635 149.13 216.635 147.189 223.599C150.531 226.991 150.933 227.368 157.61 233.611ZM189.831 237.617C194.698 231.407 196.189 229.727 201.735 223.599C196.639 218.427 191.541 213.263 186.439 208.107C182.37 213.071 178.564 218.245 175.035 223.607C181.204 229.506 181.204 229.506 189.839 237.625L189.831 237.617ZM190.257 240.214C179.648 230.334 179.648 230.334 172.578 223.607C177.493 215.783 180.574 211.908 186.185 204.879C192.281 211.138 198.433 217.356 204.553 223.607C199.454 228.851 194.674 234.396 190.241 240.214H190.257ZM189.233 233.611C191.691 230.399 191.797 230.268 197.557 223.599L186.849 212.867C183.752 216.693 183.752 216.693 178.771 223.607C181.671 226.409 183.883 228.523 189.233 233.619V233.611ZM227.943 233.619C231.982 229.826 231.982 229.826 238.479 223.607C236.34 220.134 236.242 219.994 231.105 212.867C228.058 215.947 226.731 217.266 220.349 223.607C223.29 227.188 223.29 227.188 227.943 233.619ZM256.224 237.625C263.597 230.915 264.826 229.654 270.725 223.607C269.611 216.341 269.561 216.185 266.858 208.115C260.926 214.669 258.985 216.676 252.013 223.607C254.823 230.694 254.848 230.825 256.224 237.625ZM254.921 240.214C253.914 233.226 252.636 230.211 249.842 223.607C258.649 214.981 261.877 211.392 267.612 204.879C270.954 213.744 271.339 216.832 272.191 223.607C266.724 229.447 260.948 234.991 254.888 240.214H254.921ZM258.067 233.619C261.737 230.235 261.737 230.235 268.308 223.607C267.751 220.093 267.71 219.953 265.555 212.867C262.237 216.488 261.836 216.889 255.142 223.607C256.511 227.147 256.511 227.147 258.067 233.619ZM277.041 233.619C279.917 230.293 279.917 230.293 284.636 223.607C285.897 220.06 285.897 220.06 287.249 212.867C284.882 216.554 284.677 216.816 279.376 223.607C278.958 227.114 278.926 227.237 277.041 233.619ZM164.573 264.685C162.443 262.694 162.443 262.694 159.273 258.328C155.766 255.935 155.766 255.935 149.368 250.954C150.867 253.609 150.941 253.699 154.791 258.328C157.946 260.622 158.191 260.785 164.573 264.685ZM179.058 267.053C177.755 263.186 177.78 262.727 178.009 258.328C170.98 253.191 170.013 252.454 163.721 247.538C163.541 253.109 163.566 253.207 164.942 258.352C171.259 262.498 172.995 263.546 179.058 267.077V267.053ZM180.77 268.511C173.118 264.341 169.645 262.08 163.885 258.328C161.927 252.912 162.075 250.471 162.402 245.129C169.137 250.602 172.102 252.839 179.525 258.328C178.755 263.53 179.467 265.299 180.77 268.511ZM176.6 264.685C175.953 262.702 175.953 262.702 175.846 258.328C172.373 255.87 172.373 255.87 165.81 250.954C165.712 253.617 165.729 253.707 166.63 258.328C169.972 260.589 170.226 260.744 176.584 264.685H176.6ZM196.533 264.685C197.68 262.719 197.745 262.637 201.112 258.328C198.835 256.165 198.515 255.87 193.092 250.954C191.191 253.641 191.191 253.641 188.651 258.328C192.141 261.121 192.141 261.121 196.533 264.685ZM217.424 267.053C224.797 261.596 224.797 261.596 229.164 258.328C227.46 253.412 227.394 253.314 224.027 247.513C217.219 253.551 217.121 253.641 212.025 258.328C215.458 262.94 215.499 263.022 217.424 267.053ZM216.695 268.511C215.138 264.579 213.59 262.621 210.206 258.328C214.302 254.395 216.072 252.789 224.6 245.129C228.697 251.683 229.319 253.756 230.72 258.328C226.182 261.678 225.28 262.326 216.695 268.511ZM218.489 264.685L226.771 258.328C225.952 256.001 225.879 255.87 223.134 250.954C219.611 254.01 219.611 254.01 214.72 258.328C216.4 260.671 216.4 260.671 218.489 264.685ZM237.512 264.685C240.945 262.653 240.945 262.653 247.572 258.328C248.482 255.985 248.482 255.985 249.154 250.954C245.786 253.519 245.401 253.797 238.995 258.328C238.88 260.654 238.88 260.654 237.512 264.685ZM244.672 267.053C249.42 264.528 253.947 261.61 258.206 258.328C263.056 253.412 263.122 253.265 266.858 247.513C262.505 251.425 257.893 255.038 253.053 258.328C249.645 262.907 249.555 262.981 244.672 267.053ZM242.215 268.511C247.843 264.505 249.219 262.571 252.234 258.328C258.086 254.363 263.622 249.95 268.791 245.129C265.219 251.536 263.056 253.666 258.387 258.328C251.767 263.415 248.777 265.013 242.215 268.511ZM248.252 264.685C251.669 262.67 251.669 262.67 257.805 258.328C260.173 255.968 260.173 255.968 263.851 250.954C260.754 253.568 260.509 253.748 254.168 258.328C252.529 260.646 252.414 260.72 248.252 264.685ZM204.529 278.449C197.901 278.096 197.794 278.072 191.871 276.745C187.028 275.601 182.271 274.122 177.632 272.321C183.154 274.893 183.277 274.934 189.987 276.745C194.77 277.767 199.639 278.338 204.529 278.449ZM205.872 278.449C200.505 278.376 195.156 277.8 189.897 276.728C184.724 275.624 179.751 273.734 175.15 271.124C180.65 273.488 186.346 275.363 192.174 276.728C197.204 278.121 201.424 278.285 205.897 278.449H205.872ZM200.375 278.219C197.098 277.949 197.032 277.924 191.511 276.728C188.143 275.974 188.143 275.974 181.458 273.885C184.178 275.065 184.293 275.098 190.183 276.728C193.673 277.465 193.796 277.474 200.375 278.219ZM202.063 278.219C199.933 277.949 199.875 277.924 196.86 276.728C194.403 275.974 194.403 275.974 188.914 273.885C190.282 275.065 190.347 275.098 194.009 276.728C196.656 277.41 199.347 277.908 202.063 278.219ZM205.569 278.432L204.856 278.211L204.635 277.638L205.053 276.728C203.365 275.36 202.718 274.868 199.13 272.304C198.532 274.885 198.548 274.918 199.646 276.728C203.267 278.031 203.308 278.039 205.569 278.432ZM205.897 278.432C204.144 278.391 202.366 277.793 199.154 276.712C197.45 274.909 197.786 273.721 198.523 271.108C201.006 272.825 203.378 274.697 205.626 276.712C205.389 277.037 205.175 277.379 204.987 277.736L205.127 278.252L205.897 278.432ZM204.57 278.203C204.365 278.105 204.217 277.801 204.062 277.621C204.111 277.343 204.168 276.982 204.209 276.712C203.251 276.024 203.07 275.893 200.039 273.869C199.744 275.049 199.769 275.114 200.408 276.712C201.762 277.295 203.152 277.793 204.57 278.203ZM207.65 278.203C209.302 277.838 210.921 277.339 212.492 276.712C213.311 275.966 213.311 275.966 213.655 273.869C211.959 274.877 210.976 275.45 208.822 276.712C208.822 277.449 208.822 277.449 207.65 278.203ZM206.904 278.416C212.361 278.064 212.484 278.039 219.021 276.712C223.65 275 223.716 274.95 227.124 272.288C223.245 273.979 219.277 275.456 215.236 276.712C211.918 278.014 211.82 278.023 206.904 278.416ZM205.897 278.416C210.64 278.375 212.115 277.777 214.794 276.695C219.649 275.138 224.397 273.266 229.008 271.092C225.829 274.328 223.789 275.065 219.324 276.695C214.919 277.726 210.42 278.302 205.897 278.416ZM210.042 278.186C212.713 277.916 212.82 277.892 218.538 276.695C220.824 275.95 220.824 275.95 224.273 273.853C221.25 275.024 221.143 275.057 215.884 276.695C214.245 277.433 214.179 277.441 210.05 278.186H210.042ZM211.558 278.186C215.032 277.916 215.154 277.892 221.856 276.695C225.133 275.95 225.133 275.95 230.95 273.853C227.509 275.032 227.386 275.057 220.791 276.695C217.874 277.433 217.76 277.441 211.558 278.186Z" fill="black"/>
<g opacity="0.35" filter="url(#filter3_f)">
<ellipse cx="206.5" cy="278" rx="62" ry="4" fill="black"/>
</g>
<defs>
<filter id="filter0_f" x="79.8901" y="231.421" width="254" height="94" filterUnits="userSpaceOnUse" color-interpolation-filters="sRGB">
<feFlood flood-opacity="0" result="BackgroundImageFix"/>
<feBlend mode="normal" in="SourceGraphic" in2="BackgroundImageFix" result="shape"/>
<feGaussianBlur stdDeviation="21" result="effect1_foregroundBlur"/>
</filter>
<filter id="filter1_f" x="0.837891" y="217.421" width="412" height="120" filterUnits="userSpaceOnUse" color-interpolation-filters="sRGB">
<feFlood flood-opacity="0" result="BackgroundImageFix"/>
<feBlend mode="normal" in="SourceGraphic" in2="BackgroundImageFix" result="shape"/>
<feGaussianBlur stdDeviation="28" result="effect1_foregroundBlur"/>
</filter>
<filter id="filter2_d" x="87.9189" y="0.0532837" width="238.012" height="304.404" filterUnits="userSpaceOnUse" color-interpolation-filters="sRGB">
<feFlood flood-opacity="0" result="BackgroundImageFix"/>
<feColorMatrix in="SourceAlpha" type="matrix" values="0 0 0 0 0 0 0 0 0 0 0 0 0 0 0 0 0 0 127 0"/>
<feOffset dy="2"/>
<feGaussianBlur stdDeviation="12"/>
<feColorMatrix type="matrix" values="0 0 0 0 0 0 0 0 0 0 0 0 0 0 0 0 0 0 0.1 0"/>
<feBlend mode="normal" in2="BackgroundImageFix" result="effect1_dropShadow"/>
<feBlend mode="normal" in="SourceGraphic" in2="effect1_dropShadow" result="shape"/>
</filter>
<filter id="filter3_f" x="128.5" y="258" width="156" height="40" filterUnits="userSpaceOnUse" color-interpolation-filters="sRGB">
<feFlood flood-opacity="0" result="BackgroundImageFix"/>
<feBlend mode="normal" in="SourceGraphic" in2="BackgroundImageFix" result="shape"/>
<feGaussianBlur stdDeviation="8" result="effect1_foregroundBlur"/>
</filter>
<linearGradient id="paint0_linear" x1="206.925" y1="22.0533" x2="206.925" y2="278.457" gradientUnits="userSpaceOnUse">
<stop stop-color="#FFE401"/>
<stop offset="0.494792" stop-color="#FEDD01"/>
<stop offset="1" stop-color="#F9AB01"/>
</linearGradient>
</defs>
</svg>
