<svg width="413" height="338" viewBox="0 0 413 338" fill="none" xmlns="http://www.w3.org/2000/svg">
<g filter="url(#filter0_f)">
<ellipse cx="206.89" cy="278.421" rx="85" ry="5" fill="black"/>
</g>
<g filter="url(#filter1_f)">
<ellipse cx="206.838" cy="277.421" rx="150" ry="4" fill="black"/>
</g>
<g filter="url(#filter2_d)">
<path d="M144.62 249.752C152.733 258.836 162.534 266.257 173.479 271.601C176.021 272.834 178.626 273.931 181.285 274.888C186.082 276.608 191.036 277.855 196.076 278.61C199.814 279.162 203.588 279.437 207.366 279.432C217.574 279.424 227.679 277.402 237.104 273.483C239.476 272.502 241.81 271.407 244.105 270.196C253.911 264.955 262.724 258.038 270.146 249.76C278.755 240.175 285.759 229.261 290.886 217.442C293.315 211.904 295.371 206.211 297.04 200.399C300.826 187.134 302.731 173.404 302.702 159.609C302.647 145.696 300.886 131.843 297.46 118.359C295.744 111.578 293.637 104.903 291.149 98.3663C290.223 95.9285 289.245 93.5181 288.215 91.1351C282.49 77.6323 274.843 65.0282 265.511 53.7141C258.637 45.3539 250.46 38.1565 241.295 32.3987C239.323 31.1935 237.318 30.0979 235.28 29.1118C226.634 24.7218 217.087 22.401 207.391 22.3326C203.98 22.3109 200.573 22.5859 197.21 23.1543C192.268 24.034 187.447 25.493 182.846 27.5012C180.625 28.4599 178.452 29.5295 176.338 30.7059C166.478 36.1704 157.365 44.0671 149.271 53.7141C139.929 65.0171 132.273 77.6133 126.542 91.1105C125.518 93.4825 124.54 95.8929 123.608 98.3416C121.126 104.885 119.032 111.569 117.339 118.359C113.905 131.842 112.142 145.696 112.088 159.609C112.061 173.404 113.97 187.134 117.758 200.399C119.427 206.211 121.483 211.904 123.912 217.442C129.03 229.256 136.023 240.167 144.62 249.752Z" fill="url(#paint0_linear)"/>
</g>
<path d="M206.536 22.1107C205.131 22.1518 203.734 22.349 202.329 22.4394C204 22.1527 205.696 22.037 207.391 22.0943H206.569L206.536 22.1107ZM206.783 22.0943H206.454C197.826 22.4312 195.879 23.7871 195.87 23.7953C196.207 23.8692 196.692 23.7953 199.478 23.1708C201.875 22.5913 204.32 22.231 206.783 22.0943V22.0943ZM207.605 22.0943C207.802 22.0943 207.818 22.1683 207.859 22.234C207.9 22.2997 207.711 22.3984 207.416 22.423C207.12 22.4477 207.005 22.3573 206.972 22.234C206.939 22.1107 207.144 22.0943 207.424 22.0779H207.605V22.0943ZM207.703 22.0779C207.539 22.0779 207.309 22.0779 207.136 22.0779C204.819 22.4066 205.854 23.3598 205.862 23.368C206.733 24.1404 209.149 23.8199 209.149 22.9243C209.149 22.8092 209.1 22.2011 207.67 22.1025L207.703 22.0779ZM208.492 22.1025C209.826 22.1201 211.158 22.2272 212.477 22.423V22.423C210.834 22.3162 209.125 22.1025 207.44 22.0779H208.5L208.492 22.1025ZM208.402 22.0779H208.073C210.507 22.2151 212.923 22.5838 215.288 23.179C218.081 23.7953 218.574 23.8774 218.903 23.8035C218.706 23.557 215.181 22.2669 208.352 22.1025L208.402 22.0779ZM161.375 44.6341C154.316 51.7748 148.728 57.4118 146.83 57.9213L146.666 57.8309C146.666 57.3214 147.126 56.0888 151.341 51.216C155.084 46.9613 159.156 43.0075 163.519 39.3915C164.757 38.3671 166.012 37.381 167.283 36.4333C172.673 32.4973 174.226 32.0536 174.382 32.0125C174.382 32.3001 174.382 32.3001 172.172 34.264C168.803 37.2797 166.19 39.7941 161.416 44.6341H161.375ZM162.878 45.2668C171.58 35.9814 175.368 32.7438 180.57 28.9968C180.945 28.7588 181.294 28.4835 181.614 28.175H181.268C179.853 28.7201 178.48 29.3683 177.16 30.1143C172.323 32.7579 167.755 35.8649 163.519 39.3915C159.029 43.1103 154.849 47.1885 151.021 51.5858C148.337 54.659 145.765 57.9267 143.305 61.3889V61.4464C141.571 63.9609 141.136 64.8073 141.185 65.555C142.976 66.4425 152.196 56.6312 162.837 45.2668H162.878ZM194.416 44.6341C192.279 50.7066 186.692 57.4118 179.304 57.9213C169.929 57.231 172.953 45.5955 182.057 37.4605C183.479 36.1868 195.944 25.373 195.591 38.463C195.507 40.5668 195.111 42.6465 194.416 44.6341V44.6341ZM199.141 45.2668C199.716 42.9413 201.877 27.6409 194.613 28.1668C178.532 31.24 159.14 57.4775 171.917 64.5279C179.313 68.6365 195.155 61.3232 199.141 45.2668V45.2668ZM238.501 44.6341C242.051 50.6984 242.092 57.4118 235.214 57.9213C221.015 56.9352 216.413 36.6963 220.555 32.7684C223.842 29.6459 234.236 37.2961 238.526 44.6341H238.501ZM242.544 45.2668C236.274 35.6855 223.932 27.6984 218.574 28.1668C211.705 30.1143 212.37 53.1553 227.983 62.679C238.296 68.9159 249.175 65.3743 246.135 53.1717C245.371 50.3591 244.149 47.6913 242.519 45.275L242.544 45.2668ZM264.484 52.4404C267.064 55.5547 268.108 57.116 268.067 57.8391L267.902 57.9295C267.253 57.7569 266.218 57.2557 262.035 53.3279C261.822 53.1306 240.588 32.5384 240.342 32.07C241.237 32.07 244.82 34.5351 246.316 35.5623C253.025 40.4388 259.124 46.1026 264.484 52.4322V52.4404ZM271.929 61.997C262.068 48.0278 250.219 36.7702 237.088 29.8103L236.48 29.4898C235.451 28.9137 234.363 28.4508 233.234 28.1093L233.185 28.1668L233.341 28.3312C237.449 32.3412 242.339 35.4883 246.39 39.5887C253.021 46.2939 259.184 53.4429 265.955 60.0167C266.399 60.4357 266.998 60.9945 267.45 61.4054C269.743 63.5336 272.676 65.9659 273.597 65.514C273.597 65.0949 273.679 64.5197 271.953 61.9806L271.929 61.997ZM119.368 111.514C121.357 104.751 123.156 99.9604 123.929 97.9143C123.543 98.9086 123.173 99.9111 122.811 100.914C120.668 106.859 118.835 112.912 117.322 119.049L117.692 117.603C118.177 115.77 118.834 113.33 119.335 111.514H119.368ZM149.287 110.511C147.644 116.83 142.146 129 133.338 129.822C120.379 128.54 128.3 99.0072 138.531 90.3052C146.658 83.3863 151.604 92.0555 150.462 104.118C150.231 106.268 149.849 108.399 149.32 110.495L149.287 110.511ZM155.688 111.514C159.074 97.5446 156.946 77.9466 145.951 79.0559C127.692 84.3395 114.011 132.739 128.917 139.271C137.134 142.862 150.881 131.268 155.688 111.489V111.514ZM226.134 110.487C225.962 117.29 221.796 129.016 207.235 129.797C185.706 128.647 183.742 103.297 195.903 92.4335C209.133 80.5843 226.545 93.7811 226.134 110.511V110.487ZM234.54 111.514C234.466 97.2077 224.088 77.9794 204.778 79.0805C180.258 83.337 170.972 119.575 190.587 134.473C207.646 147.439 234.664 137.192 234.54 111.514ZM286.777 110.487C287.213 112.36 290.762 128.844 281.083 129.797C266.021 128.4 258.477 95.4245 267.886 88.7686C274.172 84.3149 283.696 97.2077 286.785 110.487H286.777ZM290.319 111.489C286.941 97.7253 276.801 77.9055 265.774 79.0559C249.249 84.5121 257.475 128.942 276.777 138.483C289.004 144.514 295.323 131.909 290.319 111.489V111.489ZM296.169 114.258C295.074 110.281 293.847 106.353 292.488 102.475L293.408 105.195C294.592 108.868 294.912 109.862 296.169 114.234V114.258ZM122.622 191.262C123.822 198.411 124.808 209.339 122.622 210.021C121.694 209.75 120.527 208.493 118.284 201.163C117.881 199.807 117.462 198.435 117.133 197.055C115.546 191.016 114.349 184.882 113.551 178.689C113.452 177.933 113.362 177.169 113.271 176.405C112.219 166.306 113.542 165.723 114.841 166.963C116.977 169.059 120.593 178.944 122.647 191.262H122.622ZM126.616 192.281C123.576 173.134 116.895 154.876 113.37 156.125C112.548 157.144 112.367 158.245 112.326 161.729C112.416 167.409 112.825 173.08 113.551 178.714C114.342 184.897 115.531 191.024 117.109 197.055C118.655 202.886 120.577 208.612 122.861 214.196V214.27C123.682 216.069 126.065 221.55 127.446 217.852C128.744 214.401 128.374 203.645 126.575 192.281H126.616ZM183.471 191.262C183.282 197.425 179.806 209.274 168.055 210.021C149.854 208.871 143.239 181.721 154.669 170.439C165.763 159.502 184.062 172.732 183.487 191.262H183.471ZM192.427 192.281C193.422 174.203 180.356 154.835 161.391 156.125C135.375 161.45 137.561 202.412 158.704 215.724C175.295 226.176 191.384 211.336 192.394 192.305L192.427 192.281ZM264.706 191.286C264.558 192.009 260.86 209.134 246.324 210.046C227.827 208.871 226.134 181.721 240.005 170.464C252.585 160.258 267.343 171.212 265.076 189.059C264.993 189.733 264.845 190.621 264.706 191.286ZM271.107 192.305C274.665 176.265 268.502 154.761 247.672 156.15C219.33 161.663 213.981 202.001 233.973 215.749C249.323 226.3 266.842 211.566 271.107 192.33V192.305ZM295.989 202.905C294.123 208.468 293.088 209.791 292.118 210.071C289.735 209.323 290.869 197.104 292.381 189.084C294.682 176.931 298.347 167.678 300.319 166.659C302.291 165.64 301.889 172.411 301.716 174.614C300.75 184.213 298.823 193.691 295.964 202.905H295.989ZM291.576 215.009C298.639 197.852 302.33 179.494 302.447 160.94V160.061C302.127 156.297 301.626 155.763 300.262 156.15C289.431 164.457 283.827 219.101 288.421 219.167C289.645 219.167 291.058 216.267 291.609 215.009H291.576ZM152.286 256.958C149.164 254.14 146.209 251.141 143.436 247.977C145.851 250.752 148.413 253.397 151.111 255.898C153.149 257.788 155.25 259.577 157.414 261.264L156.411 260.442C155.162 259.407 153.494 257.977 152.303 256.925L152.286 256.958ZM170.479 256.317C173.446 260.837 176.371 266.293 173.487 266.597C163.322 265.726 144.488 245.832 149.205 240.959C151.892 238.174 162.016 243.424 170.479 256.317ZM175.023 256.958C166.486 242.257 153.905 231.789 145.762 232.619C136.329 236.004 151.374 258.84 172.706 268.659C182.065 272.965 181.022 269.9 180.332 267.838C178.853 264.076 177.078 260.438 175.023 256.958V256.958ZM219.314 256.35C218.213 259.744 214.293 266.26 207.333 266.63C196.651 266.063 190.439 251.181 197.875 243.893C205.312 236.604 220.234 240.557 220.062 252.282C220.003 253.663 219.766 255.03 219.355 256.35H219.314ZM224.433 256.958C229.701 244.706 222.437 231.69 204.819 232.619C182.583 236.185 185.172 258.092 199.207 267.879C214.088 278.224 224.343 257.196 224.433 256.958ZM257.935 256.35C252.437 261.699 244.943 266.309 241.229 266.63C236.513 266.128 246.981 250.828 254.122 244.887C261.016 239.184 266.826 238.699 266.078 243.893C265.708 246.44 263.375 251.058 257.935 256.35V256.35ZM259.373 256.958C272.66 244.632 275.281 232.528 267.532 232.487C267.081 232.487 266.489 232.578 266.037 232.619C247.031 237.114 232.264 268.98 234.294 270.582C236.085 272.004 249.085 266.474 259.373 256.958V256.958ZM260.671 258.601C263.4 256.28 266.001 253.811 268.461 251.206L266.703 253.022C264.287 255.38 263.638 256.021 260.671 258.618V258.601ZM207.44 279.161L201.269 278.914C198.695 278.721 196.135 278.373 193.602 277.871C193.92 277.89 194.236 277.934 194.547 278.002C198.789 278.74 203.085 279.122 207.391 279.144V279.144L207.44 279.161ZM207.391 279.144H206.446C200.694 278.947 196.487 278.487 187.957 276.408C186.026 275.932 185.829 275.89 185.369 275.817C186.699 276.28 188.055 276.669 189.428 276.983C190.25 277.189 191.072 277.37 191.893 277.534C196.511 278.241 202.715 278.873 207.383 279.112L207.391 279.144ZM207.383 279.112C201.844 279.046 200.612 277.961 200.595 277.953V277.871C201.039 277.682 202.239 277.945 204.063 278.462C205.123 278.83 206.229 279.048 207.35 279.112H207.383ZM207.35 279.112H207.169C206.177 278.919 205.226 278.555 204.359 278.035C200.883 276.392 198.483 275.685 196.585 275.825C196.37 275.887 196.17 275.991 195.994 276.129C195.944 277.296 200.447 279.087 207.35 279.12V279.112ZM207.35 279.12C208.47 279.055 209.576 278.836 210.637 278.471C212.477 277.953 213.628 277.69 214.08 277.879V277.961C213.784 278.265 212.001 279.062 207.358 279.12H207.35ZM207.358 279.12H208.098C217.621 278.693 218.78 276.457 218.616 276.137C218.451 275.817 217.473 275.792 216.783 275.833C214.511 276.201 212.316 276.948 210.292 278.043C208.582 278.865 208.106 279.095 207.358 279.128V279.12ZM207.358 279.128C209.593 279.128 211.368 279.046 214.343 278.766C216.652 278.553 218.92 278.084 221.22 277.822C219.176 278.257 217.107 278.564 215.025 278.742C212.477 278.999 209.918 279.128 207.358 279.128ZM207.358 279.128C213.618 279.128 219.855 278.361 225.929 276.844L226.603 276.671C227.532 276.447 228.448 276.173 229.347 275.849H229.084C215.016 278.906 214.178 279.087 207.358 279.136" fill="black"/>
<g opacity="0.35" filter="url(#filter3_f)">
<ellipse cx="206.5" cy="278" rx="62" ry="4" fill="black"/>
</g>
<defs>
<filter id="filter0_f" x="79.8901" y="231.421" width="254" height="94" filterUnits="userSpaceOnUse" color-interpolation-filters="sRGB">
<feFlood flood-opacity="0" result="BackgroundImageFix"/>
<feBlend mode="normal" in="SourceGraphic" in2="BackgroundImageFix" result="shape"/>
<feGaussianBlur stdDeviation="21" result="effect1_foregroundBlur"/>
</filter>
<filter id="filter1_f" x="0.837891" y="217.421" width="412" height="120" filterUnits="userSpaceOnUse" color-interpolation-filters="sRGB">
<feFlood flood-opacity="0" result="BackgroundImageFix"/>
<feBlend mode="normal" in="SourceGraphic" in2="BackgroundImageFix" result="shape"/>
<feGaussianBlur stdDeviation="28" result="effect1_foregroundBlur"/>
</filter>
<filter id="filter2_d" x="88.0876" y="0.331421" width="238.615" height="305.101" filterUnits="userSpaceOnUse" color-interpolation-filters="sRGB">
<feFlood flood-opacity="0" result="BackgroundImageFix"/>
<feColorMatrix in="SourceAlpha" type="matrix" values="0 0 0 0 0 0 0 0 0 0 0 0 0 0 0 0 0 0 127 0"/>
<feOffset dy="2"/>
<feGaussianBlur stdDeviation="12"/>
<feColorMatrix type="matrix" values="0 0 0 0 0 0 0 0 0 0 0 0 0 0 0 0 0 0 0.1 0"/>
<feBlend mode="normal" in2="BackgroundImageFix" result="effect1_dropShadow"/>
<feBlend mode="normal" in="SourceGraphic" in2="effect1_dropShadow" result="shape"/>
</filter>
<filter id="filter3_f" x="128.5" y="258" width="156" height="40" filterUnits="userSpaceOnUse" color-interpolation-filters="sRGB">
<feFlood flood-opacity="0" result="BackgroundImageFix"/>
<feBlend mode="normal" in="SourceGraphic" in2="BackgroundImageFix" result="shape"/>
<feGaussianBlur stdDeviation="8" result="effect1_foregroundBlur"/>
</filter>
<linearGradient id="paint0_linear" x1="207.395" y1="22.3314" x2="207.395" y2="279.432" gradientUnits="userSpaceOnUse">
<stop stop-color="#FFE401"/>
<stop offset="0.494792" stop-color="#FEDD01"/>
<stop offset="1" stop-color="#F9AB01"/>
</linearGradient>
</defs>
    </symbol>

</svg>
